<svg id="Layer_1" data-name="Layer 1" xmlns="http://www.w3.org/2000/svg" xmlns:xlink="http://www.w3.org/1999/xlink" viewBox="0 0 152 152"><defs><style>.cls-1{fill:#fff;}.cls-2{fill:url(#linear-gradient);}.cls-3{fill:url(#linear-gradient-2);}.cls-4{fill:url(#linear-gradient-3);}.cls-5{fill:#e3f2fd;}.cls-5,.cls-6,.cls-7,.cls-8,.cls-9{opacity:0.5;}.cls-6{fill:#0d47a1;}.cls-7{fill:#90caf9;}.cls-8{fill:#82b1ff;}.cls-9{fill:#1e88e5;}</style><linearGradient id="linear-gradient" x1="78.19" y1="99.33" x2="47.87" y2="64.67" gradientUnits="userSpaceOnUse"><stop offset="0.01" stop-color="#e3f2fd" stop-opacity="0.5"/><stop offset="0.99" stop-color="#82b1ff" stop-opacity="0.5"/></linearGradient><linearGradient id="linear-gradient-2" x1="79.37" y1="96.69" x2="98.58" y2="67.08" gradientUnits="userSpaceOnUse"><stop offset="0" stop-color="#e3f2fd" stop-opacity="0.5"/><stop offset="0.99" stop-color="#82b1ff" stop-opacity="0.5"/></linearGradient><linearGradient id="linear-gradient-3" x1="46.67" y1="59.26" x2="104.81" y2="59.26" gradientUnits="userSpaceOnUse"><stop offset="0.05" stop-color="#82b1ff" stop-opacity="0.5"/><stop offset="0.41" stop-color="#cee4fd" stop-opacity="0.5"/><stop offset="0.51" stop-color="#e3f2fd" stop-opacity="0.5"/><stop offset="0.95" stop-color="#82b1ff" stop-opacity="0.5"/></linearGradient></defs><title>Logo-CD-Blue_152</title><rect class="cls-1" width="152" height="152" rx="12.3"/><polygon class="cls-2" points="46.67 58.91 76.22 69.72 76.22 103.21 46.67 90.65 46.67 58.91"/><polygon class="cls-3" points="104.81 58.91 104.09 90.42 76.22 103.21 76.22 69.72 104.81 58.91"/><polygon class="cls-4" points="76.22 48.79 104.81 58.91 76.22 69.72 46.67 58.91 76.22 48.79"/><polygon class="cls-5" points="75.8 74.19 119.28 29.91 134.36 96.63 75.8 74.19"/><polygon class="cls-6" points="32.2 30.28 76 16 119.28 29.91 75.8 74.19 32.2 30.28"/><polygon class="cls-7" points="75.8 74.19 17.64 96.98 32.2 30.28 75.8 74.19"/><polygon class="cls-8" points="75.8 74.19 76 136 17.64 96.98 75.8 74.19"/><polygon class="cls-9" points="75.8 74.19 134.36 96.63 76 136 75.8 74.19"/><path class="cls-1" d="M638.26,495.83c44.92,1.48,62.69,17.86,73.36,35.89,0,0-45.91-20.86-67.46-19.36a111.69,111.69,0,0,0-31.77,3.22c-17.24,4.29-44.77,16.14-44.77,16.14S592.65,494.32,638.26,495.83Z" transform="translate(-563.62 -435.72)"/><rect class="cls-1" x="64.43" y="53.23" width="24.5" height="31.99" rx="6.47"/><rect class="cls-1" x="70.21" y="84.04" width="12.93" height="25.66"/><rect class="cls-1" x="67.83" y="108.74" width="17.92" height="43.26" rx="5.7"/></svg>